<?xml version="1.0" standalone="no"?>
<!DOCTYPE svg PUBLIC "-//W3C//DTD SVG 20010904//EN"
 "http://www.w3.org/TR/2001/REC-SVG-20010904/DTD/svg10.dtd">
<svg version="1.0" xmlns="http://www.w3.org/2000/svg"
 width="1402.000000pt" height="1402.000000pt" viewBox="0 0 1402.000000 1402.000000"
 preserveAspectRatio="xMidYMid meet">
<metadata>
Created by potrace 1.15, written by Peter Selinger 2001-2017
</metadata>
<g transform="translate(0.000000,1402.000000) scale(0.100000,-0.100000)"
fill="#ffffff" stroke="none">
<path d="M3141 11925 c-96 -21 -157 -43 -256 -92 -165 -82 -290 -193 -354
-312 -61 -115 -61 -113 -61 -808 l0 -633 -595 0 -595 0 0 -410 0 -410 595 0
595 0 0 -145 0 -145 -595 0 -595 0 0 -415 0 -415 595 0 595 0 0 -2719 c0
-1767 3 -2737 10 -2772 17 -94 74 -194 159 -280 114 -115 245 -193 431 -255
l85 -29 1560 0 c1694 0 1595 -3 1905 54 58 11 175 27 260 36 748 77 1431 405
1970 945 286 286 484 584 614 923 119 311 154 523 163 997 11 611 -33 950
-173 1336 -230 637 -647 1162 -1230 1549 -147 98 -200 142 -215 182 -14 38
-11 130 12 311 19 151 20 196 14 477 -3 171 -13 369 -20 440 -55 514 -235 970
-549 1390 -110 146 -389 429 -531 536 -470 357 -974 558 -1495 598 -74 6 -177
20 -228 31 -212 47 -294 50 -1177 49 -668 0 -842 -3 -894 -14z m1969 -93 c581
-111 1089 -377 1519 -796 449 -438 725 -981 816 -1601 37 -252 45 -783 15
-1021 -23 -188 -25 -273 -6 -318 17 -40 61 -76 231 -189 184 -121 329 -240
486 -396 519 -519 828 -1177 889 -1891 13 -151 13 -742 0 -895 -28 -327 -101
-587 -245 -880 -131 -267 -288 -486 -505 -704 -480 -483 -1045 -788 -1705
-920 -297 -60 -300 -60 -1915 -62 -1353 -1 -1480 0 -1540 15 -137 36 -232 79
-348 159 -95 65 -164 143 -210 236 l-37 75 -3 2788 -2 2788 -595 0 -595 0 0
335 0 335 595 0 595 0 0 225 0 225 -595 0 -595 0 0 335 0 335 595 0 595 0 0
663 c0 576 2 671 16 718 50 172 218 323 464 416 139 53 119 52 1075 49 868 -3
893 -3 1005 -24z"/>
<path d="M6636 11912 c17 -15 91 -74 164 -132 416 -326 759 -747 990 -1215
239 -485 349 -959 362 -1555 5 -239 3 -471 -4 -535 l-7 -60 102 -77 c832 -624
1374 -1570 1482 -2583 18 -167 21 -962 5 -1126 -71 -721 -379 -1374 -906
-1928 -146 -153 -323 -307 -539 -468 -99 -74 -184 -139 -190 -145 -6 -6 211
-8 610 -5 653 4 676 5 955 57 58 10 175 26 260 35 632 65 1200 301 1709 711
494 397 830 899 959 1434 65 265 67 295 67 855 0 443 -2 525 -18 625 -76 485
-252 922 -527 1310 -225 317 -487 570 -829 802 -179 120 -208 144 -228 182
-21 39 -20 126 1 291 25 190 29 320 17 621 -15 378 -42 575 -116 828 -93 320
-265 652 -485 936 -96 123 -336 364 -470 469 -462 366 -987 579 -1532 621 -68
5 -165 19 -216 30 -204 45 -308 50 -997 50 l-650 -1 31 -27z m1490 -80 c488
-87 923 -287 1335 -613 123 -97 337 -309 433 -429 201 -251 370 -559 470 -855
101 -296 132 -501 148 -955 11 -317 10 -358 -7 -500 -25 -214 -30 -344 -15
-379 17 -42 60 -79 214 -181 328 -220 564 -438 784 -727 361 -475 572 -1034
612 -1618 12 -191 13 -607 0 -795 -55 -806 -449 -1472 -1193 -2013 -336 -245
-701 -413 -1126 -516 -301 -74 -495 -91 -1030 -91 l-423 0 93 71 c217 166 509
449 668 649 396 498 619 1015 708 1640 15 107 18 201 18 650 0 452 -3 544 -18
660 -100 738 -386 1393 -856 1955 -200 240 -386 414 -692 650 -26 20 -26 20
-18 115 11 124 -7 697 -27 870 -50 435 -157 804 -349 1195 -215 438 -524 830
-905 1149 -52 44 -99 83 -105 88 -6 6 234 8 575 5 545 -3 593 -5 706 -25z"/>
</g>
</svg>
